<?xml version="1.0" encoding="UTF-8"?>
<svg width="64px" height="64px" viewBox="0 0 64 64" version="1.1" xmlns="http://www.w3.org/2000/svg" xmlns:xlink="http://www.w3.org/1999/xlink">
    <!-- Generator: Sketch 64 (93537) - https://sketch.com -->
    <title>Development</title>
    <desc>Created with Sketch.</desc>
    <defs>
        <linearGradient x1="50%" y1="12.1109551%" x2="50%" y2="89.4950273%" id="linearGradient-1">
            <stop stop-color="#1302D9" offset="0%"></stop>
            <stop stop-color="#060B8E" offset="49.5460304%"></stop>
            <stop stop-color="#3B1AAE" offset="100%"></stop>
        </linearGradient>
        <linearGradient x1="50%" y1="12.1109551%" x2="50%" y2="89.4950273%" id="linearGradient-2">
            <stop stop-color="#1302D9" offset="0%"></stop>
            <stop stop-color="#060B8E" offset="49.5460304%"></stop>
            <stop stop-color="#3B1AAE" offset="100%"></stop>
        </linearGradient>
        <linearGradient x1="50%" y1="12.1109551%" x2="50%" y2="89.4950273%" id="linearGradient-3">
            <stop stop-color="#1302D9" offset="0%"></stop>
            <stop stop-color="#060B8E" offset="49.5460304%"></stop>
            <stop stop-color="#3B1AAE" offset="100%"></stop>
        </linearGradient>
        <linearGradient x1="50%" y1="12.1109551%" x2="50%" y2="89.4950273%" id="linearGradient-4">
            <stop stop-color="#1302D9" offset="0%"></stop>
            <stop stop-color="#060B8E" offset="49.5460304%"></stop>
            <stop stop-color="#3B1AAE" offset="100%"></stop>
        </linearGradient>
        <linearGradient x1="50%" y1="12.1109551%" x2="50%" y2="89.4950273%" id="linearGradient-5">
            <stop stop-color="#1302D9" offset="0%"></stop>
            <stop stop-color="#060B8E" offset="49.5460304%"></stop>
            <stop stop-color="#3B1AAE" offset="100%"></stop>
        </linearGradient>
        <linearGradient x1="50%" y1="12.1109551%" x2="50%" y2="89.4950273%" id="linearGradient-6">
            <stop stop-color="#1302D9" offset="0%"></stop>
            <stop stop-color="#060B8E" offset="49.5460304%"></stop>
            <stop stop-color="#3B1AAE" offset="100%"></stop>
        </linearGradient>
        <linearGradient x1="50%" y1="12.1109551%" x2="50%" y2="89.4950273%" id="linearGradient-7">
            <stop stop-color="#1302D9" offset="0%"></stop>
            <stop stop-color="#060B8E" offset="49.5460304%"></stop>
            <stop stop-color="#3B1AAE" offset="100%"></stop>
        </linearGradient>
        <linearGradient x1="50%" y1="12.1109551%" x2="50%" y2="89.4950273%" id="linearGradient-8">
            <stop stop-color="#1302D9" offset="0%"></stop>
            <stop stop-color="#060B8E" offset="49.5460304%"></stop>
            <stop stop-color="#3B1AAE" offset="100%"></stop>
        </linearGradient>
    </defs>
    <g id="Development" stroke="none" stroke-width="1" fill="none" fill-rule="evenodd">
        <g id="Group" transform="translate(0.500000, 0.500000)">
            <g id="Group-38" transform="translate(12.500000, 10.500000)">
                <path d="M19.125,3.825 C18.70272,3.825 18.36,3.5394 18.36,3.1875 L18.36,0.6375 C18.36,0.2856 18.70272,0 19.125,0 C19.54728,0 19.89,0.2856 19.89,0.6375 L19.89,3.1875 C19.89,3.5394 19.54728,3.825 19.125,3.825" id="Fill-1" fill="url(#linearGradient-1)"></path>
                <path d="M10.7103607,6.12 C10.445801,6.12 10.1888876,5.99542419 10.0466677,5.77006794 L8.51742106,3.34573865 C8.30638503,3.01120361 8.43178325,2.58288677 8.79880244,2.38972427 C9.16123388,2.19516205 9.63071259,2.30993976 9.84327787,2.64587454 L11.3725245,5.07020383 C11.5835605,5.40473888 11.4581623,5.83305571 11.0926723,6.02621821 C10.9718619,6.09060571 10.8403467,6.12 10.7103607,6.12" id="Fill-3" fill="url(#linearGradient-2)"></path>
                <path d="M5.41884227,11.475 C5.29987741,11.475 5.17951295,11.4509106 5.0689456,11.3981434 L2.64626106,10.2510296 C2.31036025,10.0927279 2.19559414,9.74171104 2.38873711,9.46755084 C2.58327966,9.19224353 3.01155318,9.09818019 3.3460544,9.25762901 L5.76873894,10.4047428 C6.10463975,10.5630445 6.21940586,10.9140613 6.02626289,11.1882215 C5.89610133,11.3729069 5.66097077,11.475 5.41884227,11.475" id="Fill-5" fill="url(#linearGradient-3)"></path>
                <path d="M3.825,18.36 L0.765,18.36 C0.34272,18.36 0,18.18864 0,17.9775 C0,17.76636 0.34272,17.595 0.765,17.595 L3.825,17.595 C4.24728,17.595 4.59,17.76636 4.59,17.9775 C4.59,18.18864 4.24728,18.36 3.825,18.36" id="Fill-7" fill="url(#linearGradient-4)"></path>
                <path d="M2.99615773,28.305 C2.75402923,28.305 2.51889867,28.2017026 2.38873711,28.0180627 C2.19559414,27.7437507 2.31036025,27.3925395 2.64626106,27.2341502 L5.0689456,26.0864011 C5.40204723,25.9291595 5.83172034,26.0221272 6.02626289,26.2964392 C6.21940586,26.5707512 6.10463975,26.9219624 5.76873894,27.0803518 L3.3460544,28.2281008 C3.23548705,28.2808973 3.11512259,28.305 2.99615773,28.305" id="Fill-9" fill="url(#linearGradient-3)"></path>
                <path d="M34.4888423,28.305 C34.3698774,28.305 34.249513,28.2808973 34.1389456,28.2281008 L31.7162611,27.0803518 C31.3803603,26.9219624 31.2655941,26.5707512 31.4587371,26.2964392 C31.6518801,26.0221272 32.0801536,25.9291595 32.4160544,26.0864011 L34.8387389,27.2341502 C35.1746397,27.3925395 35.2894059,27.7437507 35.0962629,28.0180627 C34.9661013,28.2017026 34.7309708,28.305 34.4888423,28.305" id="Fill-11" fill="url(#linearGradient-3)"></path>
                <path d="M36.72,18.36 L33.66,18.36 C33.23772,18.36 32.895,18.18864 32.895,17.9775 C32.895,17.76636 33.23772,17.595 33.66,17.595 L36.72,17.595 C37.14228,17.595 37.485,17.76636 37.485,17.9775 C37.485,18.18864 37.14228,18.36 36.72,18.36" id="Fill-13" fill="url(#linearGradient-4)"></path>
                <path d="M32.0661577,11.475 C31.8240292,11.475 31.5888987,11.3729069 31.4587371,11.1882215 C31.2655941,10.9140613 31.3803603,10.5630445 31.7162611,10.4047428 L34.1389456,9.25762901 C34.4734468,9.09818019 34.9017203,9.19224353 35.0962629,9.46755084 C35.2894059,9.74171104 35.1746397,10.0927279 34.8387389,10.2510296 L32.4160544,11.3981434 C32.305487,11.4509106 32.1851226,11.475 32.0661577,11.475" id="Fill-15" fill="url(#linearGradient-3)"></path>
                <path d="M26.7746393,6.12 C26.6446533,6.12 26.5131381,6.09060571 26.3923277,6.02621821 C26.0268377,5.83305571 25.9014395,5.40473888 26.1124755,5.07020383 L27.6417221,2.64587454 C27.8542874,2.30993976 28.3207076,2.19516205 28.6861976,2.38972427 C29.0532167,2.58288677 29.178615,3.01120361 28.9675789,3.34573865 L27.4383323,5.77006794 C27.2961124,5.99542419 27.039199,6.12 26.7746393,6.12" id="Fill-17" fill="url(#linearGradient-2)"></path>
                <polygon id="Fill-19" fill="url(#linearGradient-5)" points="13.77 36.72 13.7713387 38.25 24.48 38.25 24.48 36.72"></polygon>
                <path d="M12.319606,30.5416912 C12.9220304,30.8716946 13.2982111,31.4713348 13.3597922,32.13 L16.0653475,32.13 L16.0653475,20.0567068 L14.7266264,20.0567068 C13.2500171,20.0567068 12.0491843,18.8534019 12.0491843,17.3737527 C12.0491843,15.8941036 13.2500171,14.6907987 14.7266264,14.6907987 C16.2032357,14.6907987 17.4040685,15.8941036 17.4040685,17.3737527 L17.4040685,18.7152298 L20.0815106,18.7152298 L20.0815106,17.3737527 C20.0815106,15.8941036 21.2823434,14.6907987 22.7589527,14.6907987 C24.235562,14.6907987 25.4363948,15.8941036 25.4363948,17.3737527 C25.4363948,18.8534019 24.235562,20.0567068 22.7589527,20.0567068 L21.4202316,20.0567068 L21.4202316,32.13 L24.1231094,32.13 C24.1860293,31.4713348 24.5662261,30.8716946 25.1740055,30.5390083 C29.4646064,28.1780087 32.13,23.6693044 32.13,18.7702303 C32.13,15.1120225 30.6868587,11.693939 28.0683203,9.14513268 C25.449782,6.59766781 21.9932042,5.25484931 18.3411732,5.360826 C11.4976313,5.56204755 5.67821087,11.2982033 5.36896631,18.147785 C5.13736757,23.3124715 7.80008373,28.0613002 12.319606,30.5416912" id="Fill-21" fill="url(#linearGradient-6)"></path>
                <path d="M14.535,16.065 C13.69197,16.065 13.005,16.5802275 13.005,17.2125 C13.005,17.8447725 13.69197,18.36 14.535,18.36 L16.065,18.36 L16.065,17.2125 C16.065,16.5802275 15.37803,16.065 14.535,16.065" id="Fill-23" fill="url(#linearGradient-7)"></path>
                <polygon id="Fill-25" fill="url(#linearGradient-5)" points="24.48 32.895 13.77 32.895 13.7713386 34.425 24.48 34.425"></polygon>
                <path d="M19.5075,43.605 C21.827235,43.605 23.715,41.88885 23.715,39.78 L15.3,39.78 C15.3,41.88885 17.187765,43.605 19.5075,43.605" id="Fill-27" fill="url(#linearGradient-8)"></path>
                <path d="M24.48,17.2125 C24.48,16.5802275 23.79303,16.065 22.95,16.065 C22.10697,16.065 21.42,16.5802275 21.42,17.2125 L21.42,18.36 L22.95,18.36 C23.79303,18.36 24.48,17.8447725 24.48,17.2125" id="Fill-29" fill="url(#linearGradient-7)"></path>
            </g>
            <path d="M31.5,0 C14.1030304,0 0,14.1030304 0,31.5 C0,48.8969696 14.1030304,63 31.5,63 C48.8969696,63 63,48.8969696 63,31.5 C63,14.1030304 48.8969696,0 31.5,0 Z M31.5,1 C48.3446849,1 62,14.6553151 62,31.5 C62,48.3446849 48.3446849,62 31.5,62 C14.6553151,62 1,48.3446849 1,31.5 C1,14.6553151 14.6553151,1 31.5,1 Z" id="Oval-Copy-36" fill="#1302D9" fill-rule="nonzero"></path>
        </g>
    </g>
</svg>