<?xml version="1.0" encoding="UTF-8"?>
<svg width="102px" height="116px" viewBox="0 0 102 116" version="1.1" xmlns="http://www.w3.org/2000/svg" xmlns:xlink="http://www.w3.org/1999/xlink">
    <!-- Generator: Sketch 64 (93537) - https://sketch.com -->
    <title>Accordion_microscope</title>
    <desc>Created with Sketch.</desc>
    <g id="Accordion_microscope" stroke="none" stroke-width="1" fill="none" fill-rule="evenodd">
        <g id="Group" transform="translate(13.000000, 10.000000)">
            <g id="Group-42" opacity="0.338843936" transform="translate(0.000000, 87.000000)" fill="#C0BBF4">
                <ellipse id="Oval" cx="38.5" cy="6.5" rx="38.5" ry="6.5"></ellipse>
            </g>
            <g id="Microscope" transform="translate(3.000000, 0.000000)">
                <path d="M46.3802293,9.95483195 C46.7994871,8.95695113 46.4897262,7.83140026 45.7160444,7.17397289 L46.891695,4.37843911 C47.1812854,3.69459725 46.8700837,2.90362995 46.1972543,2.61013559 L40.4702799,0.109563643 C39.7960097,-0.185398189 39.0050389,0.135978135 38.7168892,0.82422241 L37.5455608,3.60654894 C36.5442408,3.4891512 35.5443615,4.0409206 35.123663,5.03880142 L33,10.0839695 L44.2565663,15 L46.3802293,9.95483195 Z" id="Stroke-1" stroke="#1302D9" stroke-width="2" stroke-linecap="round"></path>
                <path d="M17.1577035,47.364496 L27.9054329,51.8530106 C28.8508627,52.2473015 29.9725337,51.8224567 30.384759,50.8883801 L33,44.9434626 L18.7677719,39 L16.1510374,44.9449175 C15.7403057,45.8789941 16.1973381,46.9643853 17.1577035,47.364496 Z" id="Stroke-3" stroke="#1302D9" stroke-width="2" stroke-linecap="round"></path>
                <path d="M19.6956901,37.6037003 L33.076709,43.3313962 C34.4921527,43.9381563 36.1464898,43.2762362 36.7526819,41.8629474 L39.3730443,35.7625487 C43.1684639,38.4012842 45.6678865,42.7827778 45.6678865,47.7307795 C45.6678865,48.8772132 45.5394813,50.0057571 45.2841639,51.0865951 C50.8742705,52.5505715 54.9996616,57.6223105 54.9996616,63.6660583 C54.9996616,63.7778692 54.9996616,63.8881892 54.9832377,64 C58.2172577,59.3084178 60,53.6806062 60,47.7307795 C60,36.8746937 53.9664475,27.4080439 45.0781183,22.4719686 L45.872439,20.623363 C46.4786311,19.2100741 45.8171949,17.5582555 44.4017513,16.9529863 L31.0207323,11.2252904 C29.6052887,10.6185303 27.9509516,11.2804504 27.3447595,12.6937392 L18.2250023,33.9333236 C17.6188102,35.3466125 18.2802464,36.9984311 19.6956901,37.6037003" id="Fill-5" fill="#D0CDF7"></path>
                <path d="M19.6956901,37.6037003 L33.076709,43.3313962 C34.4921527,43.9381563 36.1464898,43.2762362 36.7526819,41.8629474 L39.3730443,35.7625487 C43.1684639,38.4012842 45.6678865,42.7827778 45.6678865,47.7307795 C45.6678865,48.8772132 45.5394813,50.0057571 45.2841639,51.0865951 C50.8742705,52.5505715 54.9996616,57.6223105 54.9996616,63.6660583 C54.9996616,63.7778692 54.9996616,63.8881892 54.9832377,64 C58.2172577,59.3084178 60,53.6806062 60,47.7307795 C60,36.8746937 53.9664475,27.4080439 45.0781183,22.4719686 L45.872439,20.623363 C46.4786311,19.2100741 45.8171949,17.5582555 44.4017513,16.9529863 L31.0207323,11.2252904 C29.6052887,10.6185303 27.9509516,11.2804504 27.3447595,12.6937392 L18.2250023,33.9333236 C17.6188102,35.3466125 18.2802464,36.9984311 19.6956901,37.6037003 Z" id="Stroke-7" stroke="#1302D9" stroke-width="2" stroke-linecap="round"></path>
                <path d="M42.4945522,67.0928671 C40.4418969,67.0928671 38.7858614,65.4055944 38.7858614,63.3364103 C38.7858614,61.2687179 40.4418969,59.5993473 42.4945522,59.5993473 C44.5472074,59.5993473 46.2210021,61.2687179 46.2210021,63.3364103 C46.2210021,65.4055944 44.5472074,67.0928671 42.4945522,67.0928671 Z M66.9947023,79.5691375 L67.6887869,79.5691375 C67.4371997,79.5691375 67.1989319,79.5542191 66.9473447,79.5542191 C66.3790537,79.234965 65.7471259,79.0440093 65.0530414,79.0440093 L63.0166652,79.0440093 C51.476214,76.2751515 50.8457661,63.4811189 50.8457661,63.4811189 C50.8457661,58.8012121 47.0734386,55 42.4323953,55 C39.1484429,55 36.3395462,56.9095571 34.949897,59.6620047 L5.80870367,59.6620047 C5.01990391,59.6620047 4.37169698,60.2975291 4.37169698,61.0941725 L4.37169698,65.8829837 C4.37169698,66.679627 5.01990391,67.3151515 5.80870367,67.3151515 L34.539958,67.3151515 L34.539958,79.0440093 L29.0464782,79.0440093 L29.0464782,77.0553846 L30.1031443,77.0553846 C30.2614962,77.0553846 30.403569,76.9270862 30.403569,76.7525408 L30.403569,74.905641 C30.403569,74.7310956 30.2614962,74.604289 30.1031443,74.604289 L10.2440374,74.604289 C10.0708862,74.604289 9.94361273,74.7310956 9.94361273,74.905641 L9.94361273,76.7525408 C9.94361273,76.9270862 10.0708862,77.0553846 10.2440374,77.0553846 L11.2859043,77.0553846 L11.2859043,79.0440093 L3.94547872,79.0440093 C1.76702986,79.0440093 0,80.8252681 0,83.0227506 C0,85.2172494 1.76702986,87 3.94547872,87 L65.0530414,87 C67.2314902,87 69,85.2172494 69,83.0227506 C69,81.5428438 68.1786419,80.2524009 66.9947023,79.5691375 Z" id="Stroke-9" stroke="#1302D9" stroke-width="2" stroke-linecap="round"></path>
            </g>
        </g>
    </g>
</svg>