<?xml version="1.0" encoding="UTF-8"?>
<svg width="64px" height="64px" viewBox="0 0 64 64" version="1.1" xmlns="http://www.w3.org/2000/svg" xmlns:xlink="http://www.w3.org/1999/xlink">
    <!-- Generator: Sketch 64 (93537) - https://sketch.com -->
    <title>Basic Research</title>
    <desc>Created with Sketch.</desc>
    <defs>
        <linearGradient x1="50%" y1="12.1109551%" x2="50%" y2="89.4950273%" id="linearGradient-1">
            <stop stop-color="#1302D9" offset="0%"></stop>
            <stop stop-color="#060B8E" offset="49.5460304%"></stop>
            <stop stop-color="#3B1AAE" offset="100%"></stop>
        </linearGradient>
    </defs>
    <g id="Basic-Research" stroke="none" stroke-width="1" fill="none" fill-rule="evenodd">
        <g id="Group" transform="translate(0.500000, 0.500000)">
            <path d="M31.5,0 C14.1030304,0 0,14.1030304 0,31.5 C0,48.8969696 14.1030304,63 31.5,63 C48.8969696,63 63,48.8969696 63,31.5 C63,14.1030304 48.8969696,0 31.5,0 Z M31.5,1 C48.3446849,1 62,14.6553151 62,31.5 C62,48.3446849 48.3446849,62 31.5,62 C14.6553151,62 1,48.3446849 1,31.5 C1,14.6553151 14.6553151,1 31.5,1 Z" id="Oval" fill="#1302D9" fill-rule="nonzero"></path>
            <path d="M31,12.5 C41.7695526,12.5 50.5,21.2304474 50.5,32 C50.5,42.7695526 41.7695526,51.5 31,51.5 C20.2304474,51.5 11.5,42.7695526 11.5,32 C11.5,21.2304474 20.2304474,12.5 31,12.5 Z M31,13.5 C20.7827321,13.5 12.5,21.7827321 12.5,32 C12.5,42.2172679 20.7827321,50.5 31,50.5 C41.2172679,50.5 49.5,42.2172679 49.5,32 C49.5,21.7827321 41.2172679,13.5 31,13.5 Z" id="Oval" fill="#1302D9" fill-rule="nonzero"></path>
            <circle id="Oval" fill="url(#linearGradient-1)" cx="30.5" cy="32" r="12"></circle>
            <circle id="Oval-Copy" fill="#1003CB" cx="40.5" cy="17.5" r="5"></circle>
            <circle id="Oval-Copy-2" fill="#1003CB" cx="33" cy="13" r="2.5"></circle>
            <circle id="Oval-Copy-3" fill="#1003CB" cx="17" cy="19" r="2.5"></circle>
            <circle id="Oval-Copy-4" fill="#1003CB" cx="18" cy="45" r="2.5"></circle>
            <circle id="Oval-Copy-5" fill="#1003CB" cx="50" cy="46" r="2.5"></circle>
            <circle id="Oval-Copy-6" fill="#1003CB" cx="50" cy="20" r="2.5"></circle>
        </g>
    </g>
</svg>