<?xml version="1.0" encoding="UTF-8"?>
<svg width="162px" height="27px" viewBox="0 0 162 27" version="1.1" xmlns="http://www.w3.org/2000/svg" xmlns:xlink="http://www.w3.org/1999/xlink">
    <!-- Generator: Sketch 55.2 (78181) - https://sketchapp.com -->
    <title>Group 3</title>
    <desc>Created with Sketch.</desc>
    <defs>
        <polygon id="path-1" points="0.186561351 0.568245818 13.1297569 0.568245818 13.1297569 15.7222866 0.186561351 15.7222866"></polygon>
        <polygon id="path-3" points="0 22.1803401 161.428415 22.1803401 161.428415 0 0 0"></polygon>
    </defs>
    <g id="Page-1" stroke="none" stroke-width="1" fill="none" fill-rule="evenodd">
        <g id="DL-Nav-on-scroll" transform="translate(-150.000000, -11.000000)">
            <g id="Navigation-/-Layer-1" transform="translate(0.000000, 1.000000)">
                <g id="Group-3" transform="translate(150.000000, 8.000000)">
                    <g id="Logo">
                        <g id="Group-7" transform="translate(0.000000, 6.305653)">
                            <g id="Page-1">
                                <path d="M62.5299243,17.4972051 C66.8813839,17.4972051 69.0296661,15.2566509 69.0296661,11.4208483 C69.0296661,7.61125106 66.8813839,5.4853451 62.5299243,5.4853451 L60.4381759,5.4853451 L60.4381759,17.4972051 L62.5299243,17.4972051 Z M58.064578,3.91384528 L62.6995256,3.91384528 C68.4069756,3.91384528 71.460617,6.61708702 71.460617,11.4208483 C71.460617,16.249996 68.4069756,19.067886 62.8125931,19.067886 L58.064578,19.067886 L58.064578,3.91384528 Z" id="Fill-1" fill="#212F64"></path>
                                <path d="M82.9879291,12.899565 L82.1112464,10.5902218 C81.4623373,8.90407376 80.867504,7.24085535 80.2743094,5.48509943 L80.1612419,5.48509943 C79.5680473,7.24085535 78.9740333,8.90407376 78.3251243,10.5902218 L77.4205844,12.899565 L82.9879291,12.899565 Z M83.5811237,14.4473162 L76.8265704,14.4473162 L75.0461672,19.0676403 L72.6438928,19.0676403 L78.9183189,3.91359961 L81.5745855,3.91359961 L87.8490116,19.0676403 L85.3615269,19.0676403 L83.5811237,14.4473162 Z" id="Fill-3" fill="#212F64"></path>
                                <polygon id="Fill-5" fill="#212F64" points="93.0755151 5.53087683 87.4516367 5.53087683 87.4516367 3.91351771 101.045134 3.91351771 101.045134 5.53087683 95.4212558 5.53087683 95.4212558 19.0675585 93.0755151 19.0675585"></polygon>
                                <path d="M110.990812,12.899565 L110.11413,10.5902218 C109.464401,8.90407376 108.870387,7.24085535 108.277193,5.48509943 L108.164125,5.48509943 C107.570931,7.24085535 106.977736,8.90407376 106.328008,10.5902218 L105.423468,12.899565 L110.990812,12.899565 Z M111.584007,14.4473162 L104.829454,14.4473162 L103.049051,19.0676403 L100.646776,19.0676403 L106.921202,3.91359961 L109.577469,3.91359961 L115.851895,19.0676403 L113.36441,19.0676403 L111.584007,14.4473162 Z" id="Fill-7" fill="#212F64"></path>
                                <polygon id="Fill-9" fill="#ACACAC" points="118.335529 3.91384528 120.709127 3.91384528 120.709127 17.4275973 128.792632 17.4275973 128.792632 19.067886 118.335529 19.067886"></polygon>
                                <path d="M141.450374,12.899565 L140.573691,10.5902218 C139.924782,8.90407376 139.330768,7.24085535 138.736754,5.48509943 L138.624506,5.48509943 C138.031311,7.24085535 137.438116,8.90407376 136.787569,10.5902218 L135.883029,12.899565 L141.450374,12.899565 Z M142.043568,14.4473162 L135.289015,14.4473162 L133.508612,19.0676403 L131.106337,19.0676403 L137.380763,3.91359961 L140.03703,3.91359961 L146.311456,19.0676403 L143.823971,19.0676403 L142.043568,14.4473162 Z" id="Fill-11" fill="#ACACAC"></path>
                                <g id="Group-15" transform="translate(148.298658, 3.345272)">
                                    <mask id="mask-2" fill="white">
                                        <use xlink:href="#path-1"></use>
                                    </mask>
                                    <g id="Clip-14"></g>
                                    <path d="M5.78176321,14.1974649 C8.94683346,14.1974649 10.812447,13.2499791 10.812447,11.1953189 C10.812447,9.32409578 9.03204374,8.46914747 5.78176321,8.46914747 L2.56015921,8.46914747 L2.56015921,14.1974649 L5.78176321,14.1974649 Z M5.30163606,7.03686337 C8.43884911,7.03686337 9.76616306,6.11312611 9.76616306,4.42697805 C9.76616306,2.78668929 8.26924788,2.09388634 5.41470354,2.09388634 L2.56015921,2.09388634 L2.56015921,7.03686337 L5.30163606,7.03686337 Z M0.186561351,0.568245818 L5.69655293,0.568245818 C9.45481781,0.568245818 12.0840465,1.60826915 12.0840465,4.2656516 C12.0840465,5.76590573 11.0385819,7.10647123 8.83458531,7.56752094 L8.83458531,7.66087737 C11.5465663,8.00727884 13.1303304,9.20862863 13.1303304,11.2870375 C13.1303304,14.2670728 10.2471095,15.7222866 6.12096566,15.7222866 L0.186561351,15.7222866 L0.186561351,0.568245818 Z" id="Fill-13" fill="#ACACAC" mask="url(#mask-2)"></path>
                                </g>
                                <mask id="mask-4" fill="white">
                                    <use xlink:href="#path-3"></use>
                                </mask>
                                <g id="Clip-17"></g>
                                <polygon id="Fill-16" fill="#212F64" mask="url(#mask-4)" points="48.2429463 22.1803401 49.1679694 22.1803401 49.1679694 0 48.2429463 0"></polygon>
                                <polygon id="Fill-18" fill="#CC2128" mask="url(#mask-4)" points="15.2649298 2.43299946 30.6658684 2.43299946 30.6658684 0.836932161 15.2649298 0.836932161"></polygon>
                                <polygon id="Fill-19" fill="#CC2128" mask="url(#mask-4)" points="15.2649298 5.50065883 39.4269598 5.50065883 39.4269598 3.90459153 15.2649298 3.90459153"></polygon>
                                <polygon id="Fill-20" fill="#CC2128" mask="url(#mask-4)" points="15.2649298 8.5683182 36.5068691 8.5683182 36.5068691 6.97143198 15.2649298 6.97143198"></polygon>
                                <polygon id="Fill-21" fill="#CC2128" mask="url(#mask-4)" points="15.2649298 11.6351587 33.5867784 11.6351587 33.5867784 10.0390913 15.2649298 10.0390913"></polygon>
                                <polygon id="Fill-22" fill="#CC2128" mask="url(#mask-4)" points="0 14.702818 36.5068691 14.702818 36.5068691 13.1067507 0 13.1067507"></polygon>
                                <polygon id="Fill-23" fill="#CC2128" mask="url(#mask-4)" points="0 17.7704774 39.4269598 17.7704774 39.4269598 16.1744101 0 16.1744101"></polygon>
                                <polygon id="Fill-24" fill="#CC2128" mask="url(#mask-4)" points="0 20.8381368 33.5867784 20.8381368 33.5867784 19.2420695 0 19.2420695"></polygon>
                                <polygon id="Fill-25" fill="#212F64" mask="url(#mask-4)" points="1.58630404 0.836522703 1.57647209 11.6355681 8.19329603e-05 11.6355681 0.00909455859 0.836522703"></polygon>
                                <polygon id="Fill-26" fill="#212F64" mask="url(#mask-4)" points="3.05446076 11.6351587 4.63085091 11.6351587 4.63085091 3.90459153 3.05446076 3.90459153"></polygon>
                                <polygon id="Fill-27" fill="#212F64" mask="url(#mask-4)" points="6.10892152 11.6351587 7.68531167 11.6351587 7.68531167 1.45439483 6.10892152 1.45439483"></polygon>
                                <polygon id="Fill-28" fill="#212F64" mask="url(#mask-4)" points="9.1584663 11.6351587 10.7348565 11.6351587 10.7348565 2.43299946 9.1584663 2.43299946"></polygon>
                                <polygon id="Fill-29" fill="#212F64" mask="url(#mask-4)" points="13.7925945 0.836522703 13.7835819 11.6355681 12.2063724 11.6355681 12.2162044 0.836522703"></polygon>
                            </g>
                        </g>
                        <text id="BETA" font-family="SourceSansPro-Regular, Source Sans Pro" font-size="6.87889447" font-weight="normal" letter-spacing="0.51591708" fill="#A9A9A9">
                            <tspan x="57.8973618" y="7">BETA</tspan>
                        </text>
                    </g>
                </g>
            </g>
        </g>
    </g>
</svg>