<?xml version="1.0" encoding="UTF-8"?>
<svg width="200px" height="33px" viewBox="0 0 200 33" version="1.1" xmlns="http://www.w3.org/2000/svg" xmlns:xlink="http://www.w3.org/1999/xlink">
    <!-- Generator: Sketch 60.1 (88133) - https://sketch.com -->
    <title>Group</title>
    <desc>Created with Sketch.</desc>
    <defs>
        <polygon id="path-1" points="0.230102635 0.697363552 16.1940919 0.697363552 16.1940919 19.2947299 0.230102635 19.2947299"></polygon>
    </defs>
    <g id="logo" stroke="none" stroke-width="1" fill="none" fill-rule="evenodd">
        <g id="Artboard" transform="translate(0.000000, -1.000000)">
            <g id="Group" transform="translate(0.773374, -1.000000)">
                <path d="M77.1236933,29.2113824 C82.4907337,29.2113824 85.1404005,26.4617258 85.1404005,21.754346 C85.1404005,17.0791258 82.4907337,14.4701681 77.1236933,14.4701681 L74.5437547,14.4701681 L74.5437547,29.2113824 L77.1236933,29.2113824 Z M71.6161863,12.5415895 L77.3328776,12.5415895 C84.3723811,12.5415895 88.1387075,15.8590662 88.1387075,21.754346 C88.1387075,27.6807804 84.3723811,31.1389559 77.4723337,31.1389559 L71.6161863,31.1389559 L71.6161863,12.5415895 Z" id="Fill-1" fill="#212F64"></path>
                <path d="M102.356362,23.569059 L101.275072,20.7349832 C100.474715,18.6657058 99.7410544,16.6245682 99.0094149,14.4698666 L98.8699588,14.4698666 C98.1383193,16.6245682 97.4056693,18.6657058 96.6053123,20.7349832 L95.4896631,23.569059 L102.356362,23.569059 Z M103.088002,25.4684928 L94.7570131,25.4684928 L92.5610841,31.1386544 L89.5981464,31.1386544 L97.3369517,12.541288 L100.613161,12.541288 L108.351966,31.1386544 L105.283931,31.1386544 L103.088002,25.4684928 Z" id="Fill-3" fill="#212F64"></path>
                <polygon id="Fill-5" fill="#212F64" points="114.798276 14.5260456 107.861848 14.5260456 107.861848 12.5411875 124.627913 12.5411875 124.627913 14.5260456 117.691485 14.5260456 117.691485 31.1385539 114.798276 31.1385539"></polygon>
                <path d="M136.894798,23.569059 L135.813508,20.7349832 C135.01214,18.6657058 134.27949,16.6245682 133.547851,14.4698666 L133.408395,14.4698666 C132.676755,16.6245682 131.945116,18.6657058 131.143748,20.7349832 L130.028099,23.569059 L136.894798,23.569059 Z M137.626438,25.4684928 L129.295449,25.4684928 L127.09952,31.1386544 L124.136582,31.1386544 L131.875388,12.541288 L135.151596,12.541288 L142.890402,31.1386544 L139.822367,31.1386544 L137.626438,25.4684928 Z" id="Fill-7" fill="#212F64"></path>
                <polygon id="Fill-9" fill="#ACACAC" points="145.953687 12.5415895 148.881256 12.5415895 148.881256 29.1259581 158.851359 29.1259581 158.851359 31.1389559 145.953687 31.1389559"></polygon>
                <path d="M174.463273,23.569059 L173.381982,20.7349832 C172.581625,18.6657058 171.848975,16.6245682 171.116325,14.4698666 L170.97788,14.4698666 C170.24624,16.6245682 169.514601,18.6657058 168.712222,20.7349832 L167.596573,23.569059 L174.463273,23.569059 Z M175.194912,25.4684928 L166.863923,25.4684928 L164.667994,31.1386544 L161.705057,31.1386544 L169.443862,12.541288 L172.720071,12.541288 L180.458876,31.1386544 L177.390841,31.1386544 L175.194912,25.4684928 Z" id="Fill-11" fill="#ACACAC"></path>
                <g id="Group-15" transform="translate(182.909868, 11.843824)">
                    <mask id="mask-2" fill="white">
                        <use xlink:href="#path-1"></use>
                    </mask>
                    <g id="Clip-14"></g>
                    <path d="M7.1311606,17.4234359 C11.034922,17.4234359 13.3359484,16.2606608 13.3359484,13.7391373 C13.3359484,11.4427319 11.1400194,10.3935209 7.1311606,10.3935209 L3.15767108,10.3935209 L3.15767108,17.4234359 L7.1311606,17.4234359 Z M6.53897727,8.63579085 C10.40838,8.63579085 12.0454738,7.50216052 12.0454738,5.43288316 C12.0454738,3.41988533 10.1991957,2.56966258 6.67843341,2.56966258 L3.15767108,2.56966258 L3.15767108,8.63579085 L6.53897727,8.63579085 Z M0.230102635,0.697363552 L7.02606321,0.697363552 C11.6614641,0.697363552 14.9043247,1.97370267 14.9043247,5.23489985 C14.9043247,7.07604415 13.6148607,8.72121512 10.8964764,9.28702529 L10.8964764,9.40159432 C14.2414028,9.82670569 16.1947993,11.3010281 16.1947993,13.8516964 C16.1947993,17.5088602 12.6386677,19.2947299 7.54952902,19.2947299 L0.230102635,19.2947299 L0.230102635,0.697363552 Z" id="Fill-13" fill="#ACACAC" mask="url(#mask-2)"></path>
                </g>
                <polygon id="Fill-16" fill="#212F64" points="59.5022981 34.9586268 60.643211 34.9586268 60.643211 7.738434 59.5022981 7.738434"></polygon>
                <polygon id="Fill-18" fill="#CC2128" points="18.8275898 10.7242635 37.8229312 10.7242635 37.8229312 8.76553524 18.8275898 8.76553524"></polygon>
                <polygon id="Fill-19" fill="#CC2128" points="18.8275898 14.4889614 48.6287612 14.4889614 48.6287612 12.5302331 18.8275898 12.5302331"></polygon>
                <polygon id="Fill-20" fill="#CC2128" points="18.8275898 18.2536593 45.0271547 18.2536593 45.0271547 16.293926 18.8275898 16.293926"></polygon>
                <polygon id="Fill-21" fill="#CC2128" points="18.8275898 22.0173522 41.4255482 22.0173522 41.4255482 20.0586239 18.8275898 20.0586239"></polygon>
                <polygon id="Fill-22" fill="#CC2128" points="3.55271368e-15 25.7820501 45.0271547 25.7820501 45.0271547 23.8233218 3.55271368e-15 23.8233218"></polygon>
                <polygon id="Fill-23" fill="#CC2128" points="1.77635684e-14 29.546748 48.6287612 29.546748 48.6287612 27.5880197 1.77635684e-14 27.5880197"></polygon>
                <polygon id="Fill-24" fill="#CC2128" points="1.77635684e-14 33.3114459 41.4255482 33.3114459 41.4255482 31.3527176 1.77635684e-14 31.3527176"></polygon>
                <polygon id="Fill-25" fill="#212F64" points="1.95652926 8.76503274 1.94440264 22.0178547 0.000101055176 22.0178547 0.0112171245 8.76503274"></polygon>
                <polygon id="Fill-26" fill="#212F64" points="3.76733696 22.0173522 5.71163854 22.0173522 5.71163854 12.5302331 3.76733696 12.5302331"></polygon>
                <polygon id="Fill-27" fill="#212F64" points="7.53467391 22.0173522 9.4789755 22.0173522 9.4789755 9.52329878 7.53467391 9.52329878"></polygon>
                <polygon id="Fill-28" fill="#212F64" points="11.2959476 22.0173522 13.2402491 22.0173522 13.2402491 10.7242635 11.2959476 10.7242635"></polygon>
                <polygon id="Fill-29" fill="#212F64" points="17.0116283 8.76503274 17.0005122 22.0178547 15.0552001 22.0178547 15.0673267 8.76503274"></polygon>
                <text id="BETA" font-family="SourceSansPro-Regular, Source Sans Pro" font-size="8.441928" font-weight="normal" letter-spacing="0.633144583" fill="#A9A9A9">
                    <tspan x="71.4099437" y="8">BETA</tspan>
                </text>
            </g>
        </g>
    </g>
</svg>