<svg width="344px" height="73px" viewBox="0 0 344 73" version="1.1" xmlns="http://www.w3.org/2000/svg" xmlns:xlink="http://www.w3.org/1999/xlink">
    <defs>
        <polygon id="path-1" points="0.39054 1.18954286 27.485303 1.18954286 27.485303 32.9124 0.39054 32.9124"></polygon>
        <polygon id="path-3" points="0 46.4314286 337.927727 46.4314286 337.927727 0 0 0"></polygon>
    </defs>
    <g id="Page-1" stroke="none" stroke-width="1" fill="none" fill-rule="evenodd">
        <g id="DL-Nav-menu-main" transform="translate(-547.000000, -51.000000)">
            <g id="Logo" transform="translate(547.000000, 47.000000)">
                <g id="Group-7" transform="translate(0.000000, 13.310000)">
                    <g id="Page-1" transform="translate(1.410000, 0.000000)">
                        <path d="M130.897619,36.6279429 C140.006789,36.6279429 144.503916,31.9376571 144.503916,23.9079429 C144.503916,15.9330857 140.006789,11.4828 130.897619,11.4828 L126.518838,11.4828 L126.518838,36.6279429 L130.897619,36.6279429 Z M121.550044,8.19308571 L131.252656,8.19308571 C143.200401,8.19308571 149.592771,13.8519429 149.592771,23.9079429 C149.592771,34.0170857 143.200401,39.9159429 131.489347,39.9159429 L121.550044,39.9159429 L121.550044,8.19308571 Z" id="Fill-1" fill="#212F64"></path>
                        <path d="M173.723581,27.0034286 L171.888368,22.1691429 C170.529968,18.6394286 169.284768,15.1577143 168.042999,11.4822857 L167.806308,11.4822857 C166.564538,15.1577143 165.321053,18.6394286 163.962653,22.1691429 L162.069126,27.0034286 L173.723581,27.0034286 Z M174.96535,30.2434286 L160.825641,30.2434286 L157.098617,39.9154286 L152.069793,39.9154286 L165.204423,8.19257143 L170.764944,8.19257143 L183.899575,39.9154286 L178.692375,39.9154286 L174.96535,30.2434286 Z" id="Fill-3" fill="#212F64"></path>
                        <polygon id="Fill-5" fill="#212F64" points="194.840526 11.5781143 183.067726 11.5781143 183.067726 8.1924 211.523805 8.1924 211.523805 11.5781143 199.751005 11.5781143 199.751005 39.9152571 194.840526 39.9152571"></polygon>
                        <path d="M232.343686,27.0034286 L230.508474,22.1691429 C229.148359,18.6394286 227.904874,15.1577143 226.663104,11.4822857 L226.426413,11.4822857 C225.184644,15.1577143 223.942874,18.6394286 222.582759,22.1691429 L220.689232,27.0034286 L232.343686,27.0034286 Z M233.585456,30.2434286 L219.445747,30.2434286 L215.718722,39.9154286 L210.689898,39.9154286 L223.824528,8.19257143 L229.38505,8.19257143 L242.51968,39.9154286 L237.31248,39.9154286 L233.585456,30.2434286 Z" id="Fill-7" fill="#212F64"></path>
                        <polygon id="Fill-9" fill="#ACACAC" points="247.718819 8.19308571 252.687613 8.19308571 252.687613 36.4822286 269.609298 36.4822286 269.609298 39.9159429 247.718819 39.9159429"></polygon>
                        <path d="M296.106502,27.0034286 L294.27129,22.1691429 C292.91289,18.6394286 291.669405,15.1577143 290.42592,11.4822857 L290.190944,11.4822857 C288.949175,15.1577143 287.707405,18.6394286 286.345575,22.1691429 L284.452047,27.0034286 L296.106502,27.0034286 Z M297.348272,30.2434286 L283.208562,30.2434286 L279.481538,39.9154286 L274.452714,39.9154286 L287.587344,8.19257143 L293.147865,8.19257143 L306.282496,39.9154286 L301.075296,39.9154286 L297.348272,30.2434286 Z" id="Fill-11" fill="#ACACAC"></path>
                        <g id="Group-15" transform="translate(310.442424, 7.002857)">
                            <mask id="mask-2" fill="white">
                                <use xlink:href="#path-1"></use>
                            </mask>
                            <g id="Clip-14"></g>
                            <path d="M12.1033097,29.7204 C18.72894,29.7204 22.63434,27.7369714 22.63434,23.4358286 C22.63434,19.5186857 18.9073158,17.7289714 12.1033097,17.7289714 L5.35933394,17.7289714 L5.35933394,29.7204 L12.1033097,29.7204 Z M11.0982309,14.7306857 C17.6655461,14.7306857 20.4440915,12.7969714 20.4440915,9.26725714 C20.4440915,5.83354286 17.3105097,4.38325714 11.3349218,4.38325714 L5.35933394,4.38325714 L5.35933394,14.7306857 L11.0982309,14.7306857 Z M0.39054,1.18954286 L11.9249339,1.18954286 C19.7923339,1.18954286 25.2962552,3.36668571 25.2962552,8.92954286 C25.2962552,12.0701143 23.1077218,14.8764 18.4939642,15.8415429 L18.4939642,16.0369714 C24.1711158,16.7621143 27.4865036,19.2769714 27.4865036,23.6278286 C27.4865036,29.8661143 21.4508855,32.9124 12.8133824,32.9124 L0.39054,32.9124 L0.39054,1.18954286 Z" id="Fill-13" fill="#ACACAC" mask="url(#mask-2)"></path>
                        </g>
                        <mask id="mask-4" fill="white">
                            <use xlink:href="#path-3"></use>
                        </mask>
                        <g id="Clip-17"></g>
                        <polygon id="Fill-16" fill="#212F64" mask="url(#mask-4)" points="100.989836 46.4314286 102.926242 46.4314286 102.926242 0 100.989836 0"></polygon>
                        <polygon id="Fill-18" fill="#CC2128" mask="url(#mask-4)" points="31.9549879 5.09314286 64.1946909 5.09314286 64.1946909 1.752 31.9549879 1.752"></polygon>
                        <polygon id="Fill-19" fill="#CC2128" mask="url(#mask-4)" points="31.9549879 11.5148571 82.5348061 11.5148571 82.5348061 8.17371429 31.9549879 8.17371429"></polygon>
                        <polygon id="Fill-20" fill="#CC2128" mask="url(#mask-4)" points="31.9549879 17.9365714 76.4220061 17.9365714 76.4220061 14.5937143 31.9549879 14.5937143"></polygon>
                        <polygon id="Fill-21" fill="#CC2128" mask="url(#mask-4)" points="31.9549879 24.3565714 70.3092061 24.3565714 70.3092061 21.0154286 31.9549879 21.0154286"></polygon>
                        <polygon id="Fill-22" fill="#CC2128" mask="url(#mask-4)" points="0 30.7782857 76.4220061 30.7782857 76.4220061 27.4371429 0 27.4371429"></polygon>
                        <polygon id="Fill-23" fill="#CC2128" mask="url(#mask-4)" points="0 37.2 82.5348061 37.2 82.5348061 33.8588571 0 33.8588571"></polygon>
                        <polygon id="Fill-24" fill="#CC2128" mask="url(#mask-4)" points="0 43.6217143 70.3092061 43.6217143 70.3092061 40.2805714 0 40.2805714"></polygon>
                        <polygon id="Fill-25" fill="#212F64" mask="url(#mask-4)" points="3.32070485 1.75114286 3.30012303 24.3574286 0.000171515152 24.3574286 0.0190381818 1.75114286"></polygon>
                        <polygon id="Fill-26" fill="#212F64" mask="url(#mask-4)" points="6.39408485 24.3565714 9.69403636 24.3565714 9.69403636 8.17371429 6.39408485 8.17371429"></polygon>
                        <polygon id="Fill-27" fill="#212F64" mask="url(#mask-4)" points="12.7881697 24.3565714 16.0881212 24.3565714 16.0881212 3.04457143 12.7881697 3.04457143"></polygon>
                        <polygon id="Fill-28" fill="#212F64" mask="url(#mask-4)" points="19.1719636 24.3565714 22.4719152 24.3565714 22.4719152 5.09314286 19.1719636 5.09314286"></polygon>
                        <polygon id="Fill-29" fill="#212F64" mask="url(#mask-4)" points="28.8728606 1.75114286 28.8539939 24.3574286 25.5523273 24.3574286 25.5729091 1.75114286"></polygon>
                    </g>
                    <text id="Visualizations-to-he" font-family="SourceSansPro-Regular, Source Sans Pro" font-size="13.31" font-weight="normal" line-spacing="16.94" letter-spacing="0.33275001" fill="#4F4F4F">
                        <tspan x="0.625" y="60.19">Visualizations to help you understand government finance.</tspan>
                    </text>
                </g>
                <text id="BETA" font-family="SourceSansPro-Regular, Source Sans Pro" font-size="14.52" font-weight="normal" letter-spacing="1.08899994" fill="#A9A9A9">
                    <tspan x="123.62" y="14">BETA</tspan>
                </text>
            </g>
        </g>
    </g>
</svg>